<svg width="240" height="40" viewBox="0 0 240 40" fill="none" xmlns="http://www.w3.org/2000/svg">
<path d="M40.5978 20.0856C40.54 31.1268 31.4026 40.0568 20.2123 39.9997C8.99304 39.9712 -0.0575556 30.9556 0.000275609 19.9144C0.0581069 8.87319 9.19545 -0.0567886 20.3858 0.000271937C31.6051 0.0573325 40.6556 9.04437 40.5978 20.0856Z" fill="#221F1F"/>
<path d="M10.6703 15.3781C11.3642 15.5208 12.1161 14.6934 12.3763 13.5237C12.6365 12.3539 12.2895 11.2698 11.5956 11.1271C11.1329 11.013 10.6414 11.3839 10.2655 11.983C10.5835 12.1542 10.7281 12.5251 10.5835 12.8675C10.4389 13.1528 10.1209 13.324 9.83172 13.2669C9.68714 14.294 10.0341 15.2355 10.6703 15.3781ZM7.34498 12.9245C7.89437 10.0144 9.6004 7.90321 11.1329 8.18851C12.6944 8.47381 13.4751 11.0701 12.9257 13.9802C12.4052 16.8902 10.6992 19.0015 9.16666 18.7162C7.60522 18.4309 6.79558 15.8346 7.34498 12.9245ZM34.2076 15.3781C16.8871 26.7903 4.94498 20.9986 4.94498 20.9986C4.77149 24.9643 11.6534 37.1753 19.9233 37.3465C28.1353 37.4891 34.2076 15.3781 34.2076 15.3781ZM9.051 19.1727C10.8727 19.515 12.8389 17.2326 13.4462 14.0657C14.0534 10.8989 13.0703 8.04586 11.2775 7.70349C9.45582 7.36113 7.48955 9.64355 6.88233 12.8104C6.24618 16.0058 7.22931 18.8588 9.051 19.1727ZM15.2679 17.5464C15.8751 16.8902 16.5691 16.234 17.3498 15.6349C20.9353 12.9245 24.8389 12.2398 26.1112 14.1228C26.6028 14.8646 26.6317 15.8632 26.2558 16.9758C27.5281 14.8931 27.9329 12.9816 27.1522 11.926C25.8221 10.1571 21.745 11.3839 17.9859 14.6364C16.916 15.5493 16.0197 16.5764 15.2679 17.5464ZM19.2582 8.90177C22.1209 6.99024 27.0654 5.93462 29.6968 9.92886C28.0775 0.742104 21.2245 6.02021 19.2582 8.90177ZM40.0775 20.0856C40.0196 30.8416 31.1425 39.5148 20.2124 39.4577C9.31124 39.4006 0.549805 30.6418 0.549805 19.8859C0.549805 12.9245 4.07751 7.90321 7.43172 5.22136C11.5377 1.94038 14.3426 4.45104 15.3257 6.36257C15.21 5.56372 14.863 3.22424 13.9667 1.54095C15.9907 0.856225 18.1594 0.485331 20.4148 0.513861C31.316 0.599452 40.1064 9.32972 40.0775 20.0856ZM27.6148 29.9286C25.4751 33.7231 22.8148 36.8329 19.8365 36.7759C17.9859 36.7473 16.2221 36.0341 14.6028 34.9499C15.1233 34.0369 18.3618 29.3865 27.6148 29.9286Z" fill="#00A046"/>
<path d="M223.171 22.1398L226.236 14.779L229.301 22.1398H223.171ZM230.689 10.2712H221.812L212.501 29.9571H219.933L221.552 26.1055H230.949L232.54 29.9571H240L230.689 10.2712Z" fill="white"/>
<path d="M162.651 15.3211H170.92V29.9286H177.716V15.3211H186.014V10.2712H162.651V15.3211Z" fill="white"/>
<path d="M146.805 22.0828H158.487V18.1456H146.805V15.2355H160.482V10.2712H140.241V29.9286H160.974V25.0785H146.805V22.0828Z" fill="white"/>
<path d="M137.32 13.7805V10.2712H115.287V15.3211H127.142L115.113 26.4479V29.9286H137.378V24.8787H125.436L137.32 13.7805Z" fill="white"/>
<path d="M99.8458 25.3067C95.5085 25.3067 92.8482 23.8517 92.8482 20.1142C92.8482 16.3768 95.4795 14.9502 99.8458 14.9502C104.154 14.9502 106.872 16.3768 106.872 20.1142C106.872 23.8517 104.183 25.3067 99.8458 25.3067ZM99.8458 9.78625C91.1422 9.78625 85.7061 13.0958 85.7061 20.1142C85.7061 27.1041 91.1422 30.4707 99.8458 30.4707C108.578 30.4707 114.014 27.1327 114.014 20.1142C114.014 13.0958 108.578 9.78625 99.8458 9.78625Z" fill="white"/>
<path d="M67.3737 14.8931H73.9665C76.0195 14.8931 76.8002 15.9773 76.8002 17.3752C76.8002 18.3167 76.2219 20 73.8508 20H67.3737V14.8931ZM83.711 17.3752C83.711 13.2098 81.0219 10.2427 74.5737 10.2427H60.6653V29.9286H67.3737V24.3652H71.7111L76.54 29.9286H84.9255L79.3159 23.5378C82.0918 22.368 83.711 19.8003 83.711 17.3752Z" fill="white"/>
<path d="M203.393 10.2712L195.123 17.4609V10.2712H188.415V29.9286H195.123V24.5079L197.668 22.3966L203.422 29.9286H211.807L202.525 18.3168L212.125 10.2712H203.393Z" fill="white"/>
</svg>
