<?xml version="1.0" encoding="UTF-8" standalone="no"?>
<!-- Created with Inkscape (http://www.inkscape.org/) -->

<svg
   xmlns:dc="http://purl.org/dc/elements/1.1/"
   xmlns:cc="http://creativecommons.org/ns#"
   xmlns:rdf="http://www.w3.org/1999/02/22-rdf-syntax-ns#"
   xmlns:svg="http://www.w3.org/2000/svg"
   xmlns="http://www.w3.org/2000/svg"
   xmlns:sodipodi="http://sodipodi.sourceforge.net/DTD/sodipodi-0.dtd"
   xmlns:inkscape="http://www.inkscape.org/namespaces/inkscape"
   width="48px"
   height="48px"
   id="svg4270"
   version="1.1"
   inkscape:version="0.48.4 r9939"
   sodipodi:docname="log.svg">
  <defs
     id="defs4272">
    <inkscape:path-effect
       effect="bend_path"
       id="path-effect3995"
       is_visible="true"
       bendpath="m -1151.1758,-47.672764 c 38.9399,15.014379 -23.5034,-15.460558 443.63283,0"
       prop_scale="1"
       scale_y_rel="false"
       vertical="false"
       bendpath-nodetypes="cc" />
    <inkscape:path-effect
       effect="envelope"
       id="path-effect4229"
       is_visible="true"
       yy="true"
       xx="true"
       bendpath1="m -1154.9877,-88.20298 439.91074,41.232188"
       bendpath2="m -707.89346,-70.6793 0,45.554328"
       bendpath3="m -1154.9877,-25.124972 430.33273,45.355407"
       bendpath4="m -1154.9877,-70.6793 0,45.554328"
       bendpath3-nodetypes="cc"
       bendpath1-nodetypes="cc" />
  </defs>
  <sodipodi:namedview
     id="base"
     pagecolor="#ffffff"
     bordercolor="#666666"
     borderopacity="1.0"
     inkscape:pageopacity="0.0"
     inkscape:pageshadow="2"
     inkscape:zoom="7"
     inkscape:cx="19.642857"
     inkscape:cy="32.612637"
     inkscape:current-layer="layer1"
     showgrid="true"
     inkscape:grid-bbox="true"
     inkscape:document-units="px"
     inkscape:window-width="1366"
     inkscape:window-height="706"
     inkscape:window-x="-8"
     inkscape:window-y="-8"
     inkscape:window-maximized="1" />
  <metadata
     id="metadata4275">
    <rdf:RDF>
      <cc:Work
         rdf:about="">
        <dc:format>image/svg+xml</dc:format>
        <dc:type
           rdf:resource="http://purl.org/dc/dcmitype/StillImage" />
        <dc:title />
      </cc:Work>
    </rdf:RDF>
  </metadata>
  <g
     id="layer1"
     inkscape:label="Layer 1"
     inkscape:groupmode="layer">
    <path
       sodipodi:type="spiral"
       style="fill:#ffff00;stroke:#000000;stroke-width:0.26215988000000001;stroke-linecap:butt;stroke-linejoin:miter;stroke-miterlimit:4;stroke-opacity:1;stroke-dasharray:0.13107994000000001, 0.13107994000000001;stroke-dashoffset:0"
       id="path2992"
       sodipodi:cx="6.7142859"
       sodipodi:cy="8.5714283"
       sodipodi:expansion="1.5"
       sodipodi:revolution="26.940924"
       sodipodi:radius="18.676273"
       sodipodi:argument="-167.99719"
       sodipodi:t0="0.11058418"
       d="M 6.7502749,9.2572838 C 6.3510769,9.3104431 5.9900895,9.004298 5.9403145,8.6120411 5.883435,8.1637959 6.2278651,7.7594543 6.6688667,7.7058607 7.1680146,7.6452008 7.6173415,8.029412 7.6748025,8.5210269 7.7393029,9.0728679 7.3138695,9.5687534 6.7698394,9.6301324 6.1635737,9.698533 5.6196082,9.2304857 5.5542594,8.6322986 5.481899,7.9699296 5.9939077,7.3764102 6.6479393,7.3070387 7.3680412,7.2306594 8.0125458,7.7879364 8.0859931,8.4994504 8.1664501,9.2788704 7.5626348,9.9757519 6.7920459,10.053329 5.9517641,10.137921 5.2011503,9.486332 5.1193902,8.6551176 5.0306037,7.7524683 5.731172,6.9468003 6.6245239,6.860803 7.5910108,6.7677654 8.4530237,7.5184883 8.5433121,8.4754534 8.6406574,9.5072152 7.8386317,10.426835 6.8166107,10.521468 5.7181679,10.623177 4.7397076,9.7687252 4.6406762,8.6802372 4.5345472,7.5137363 5.4425247,6.4752261 6.5988613,6.3717432 7.8347703,6.2611393 8.9345154,7.2237197 9.0425027,8.4492593 9.1576362,9.7559003 8.1393964,10.918043 6.8433258,11.030587 5.4646529,11.150305 4.238972,10.075369 4.121818,8.7074634 3.9974634,7.2554819 5.1301132,5.9651416 6.5711336,5.8433262 8.0976786,5.7142811 9.4537799,6.9056452 9.5803084,8.4210389 9.7140967,10.023382 8.4630349,11.446327 6.8720304,11.57762 5.1926757,11.716204 3.7018191,10.404477 3.5657111,8.7366441 3.4222806,6.979082 4.7956251,5.4192649 6.5414844,5.2782913 8.3784316,5.1299625 10.008243,6.5658623 10.154132,8.3909285 10.30741,10.308421 8.8080311,12.009245 6.902595,12.1601 4.9034133,12.318377 3.1305714,10.754609 2.9747016,8.7676563 2.8113758,6.6856575 4.4404319,4.8398075 6.5100311,4.6788739 8.6759599,4.5104497 10.595795,6.205679 10.761841,8.3590401 10.935413,10.609997 9.1731363,12.604782 6.9349126,12.775989 4.5978427,12.954756 2.5271557,11.12457 2.3507408,8.8003975 2.1667293,6.3761441 4.0656771,4.2286147 6.4768717,4.0469439 8.9893664,3.8576407 11.214667,5.8261915 11.401641,8.3254678 11.596283,10.927249 9.5572981,13.231239 6.9688929,13.423563 4.2767916,13.623591 1.8932048,11.51335 1.6954851,8.8347809 1.490024,6.0513382 3.6723333,3.5872575 6.4420899,3.3840954 9.3178841,3.1731556 11.863346,5.4283362 12.071996,8.2902921 12.288461,11.259437 9.9596142,13.887158 7.0044581,14.101341 3.9409734,14.323376 1.2301251,11.920078 1.0103634,8.8707314 0.78271328,5.7119286 3.2612408,2.9170936 6.4057581,2.6917087 9.6608475,2.4583984 12.54052,5.0129251 12.771572,8.2535831 13.010587,11.605918 10.379299,14.57127 7.0415405,14.808034 3.5910107,15.052798 0.53914474,12.343994 0.29662509,8.9081835 0.04606893,5.3585183 2.8331354,2.2193125 6.3679399,1.9709938 10.017672,1.7146016 13.245036,4.5806711 13.499197,8.2154023 13.761468,11.966124 10.815663,15.282457 7.0800805,15.542503 3.2274538,15.810697 -0.17865164,12.784428 -0.44462527,8.9470793 -0.71878384,4.9916416 2.388668,1.4949673 6.3286915,1.2230236 10.387839,0.94285793 13.975871,4.1322066 14.253827,8.1758044 14.540042,12.339552 11.268089,16.019725 7.1200248,16.303735 2.8507932,16.596041 -0.92229693,13.240782 -1.2124021,8.987367 -1.5108403,4.6117756 1.9284204,0.7449991 6.2880633,0.44875726 10.770883,0.14414542 14.73211,3.6680977 15.034529,8.1348385 15.345356,12.725749 11.736027,16.782182 7.1613256,17.09082 2.4614697,17.407902 -1.6909217,13.712518 -2.0058186,9.0290001 -2.329196,4.2193503 1.452916,-0.02974465 6.2461006,-0.35094075 11.166386,-0.68065401 15.512924,3.1888551 15.84046,8.0925487 16.176549,13.124306 12.218979,17.569021 7.2039399,17.902935 2.0598825,18.24544 -2.4837389,14.199151 -2.8240716,9.0719365 -3.1730312,3.8147552 0.96262968,-0.8284954 6.2028445,-1.1752859 11.573967,-1.5307398 16.317565,2.6949424 16.670852,8.0489754 17.032839,13.53485 12.716492,18.379509 7.2478283,18.739332 1.6463953,19.107891 -3.3000314,14.700238 -3.6664289,9.1161377 -4.0415985,3.3983462 0.45799428,-1.650552 6.1583328,-2.0235623 11.993277,-2.4053807 17.145345,2.1867831 17.525007,8.0041552 17.913512,13.957042 13.228151,19.212974 7.2929548,19.599324 1.2213411,19.994554 -4.1391425,15.215373 -4.5322195,9.1615685 -4.9342125,2.9704492 -0.06059318,-2.4952713 6.1125997,-2.8951127 12.423998,-3.3039057 17.995636,1.6647659 18.402279,7.9581219 18.817909,14.390569 13.753575,20.068799 7.3392864,20.482281 0.7850267,20.904786 -5.0004676,15.744183 -5.4208255,9.2081965 -5.8502418,2.5313648 -0.59276694,-3.3620609 6.0656772,-3.7893316 12.865835,-4.225696 18.867856,1.1292494 19.302076,7.9109066 19.745425,14.835142 14.292414,20.946416 7.3867926,21.387621 0.33773537,21.837991 -5.8834477,16.286323 -6.3316754,9.2559917 -6.7891025,2.0813711 -1.1381886,-4.2503723 6.0175946,-4.7056581 13.318515,-5.1701783 19.761467,0.58056575 20.223846,7.8625384 20.695495,15.290492 14.84434,21.845295 7.4354448,22.314804 -0.1202698,22.793618 -6.7875642,16.841473 -7.2642388,9.3049263 -7.7502523,1.6207264 -1.6965439,-5.1596961 5.9683793,-5.6435713 13.781785,-6.1368199 20.675968,0.01902364 21.167079,7.813044 21.667598,15.756371 15.409051,22.764945 7.4852168,23.263326 -0.58874383,23.771151 -7.712334,17.409335 -8.2180214,9.3549743 -8.7331856,1.1496715 -2.2675398,-6.0895575 5.9180568,-6.6025853 14.255406,-7.1251241 21.610893,-0.55508897 22.131296,7.7624484 22.661244,16.232545 15.986263,23.704907 7.5360839,24.232719 -1.0674578,24.77011 -8.6573056,17.989631 -9.1925611,9.4061115 -9.7374299,0.66843162 -2.8509025,-7.0395125 5.8666508,-7.5822456 14.739159,-8.1346258 22.565806,-1.1415026 23.11605,7.7107752 23.675976,16.718798 16.575712,24.66475 7.588023,25.22254 -1.5561972,25.790045 -9.6220561,18.582099 -10.187425,9.4583152 -10.762542,0.17721787 -3.4463752,-8.0091445 5.8141839,-8.582126 15.232835,-9.164889 23.540295,-1.7399645 24.120922,7.6580463 24.711364,17.214923 17.177148,25.644073 7.6410125,26.232379 -2.0547604,26.830534 -10.606188,19.186495 -11.202206,9.511564 -11.808106,-0.32377119 -4.0537163,-8.9980622 5.760677,-9.6018254 15.736238,-10.215503 24.533975,-2.3502367 25.145516,7.6042826 25.66388,16.042077 20.172723,23.939233 12.111563,26.450818"
       transform="matrix(0.61624563,0,0,0.58007469,30.429283,29.512858)" />
    <path
       sodipodi:type="spiral"
       style="fill:#d45500;stroke:#000000;stroke-width:0.26215988000000001;stroke-linecap:butt;stroke-linejoin:miter;stroke-miterlimit:4;stroke-opacity:1;stroke-dasharray:0.13107994000000001, 0.13107994000000001;stroke-dashoffset:0"
       id="path2998"
       sodipodi:cx="6.7142859"
       sodipodi:cy="8.5714283"
       sodipodi:expansion="1.5"
       sodipodi:revolution="26.940924"
       sodipodi:radius="18.676273"
       sodipodi:argument="-167.99719"
       sodipodi:t0="0.11058418"
       d="M 6.7502749,9.2572838 C 6.3510769,9.3104431 5.9900895,9.004298 5.9403145,8.6120411 5.883435,8.1637959 6.2278651,7.7594543 6.6688667,7.7058607 7.1680146,7.6452008 7.6173415,8.029412 7.6748025,8.5210269 7.7393029,9.0728679 7.3138695,9.5687534 6.7698394,9.6301324 6.1635737,9.698533 5.6196082,9.2304857 5.5542594,8.6322986 5.481899,7.9699296 5.9939077,7.3764102 6.6479393,7.3070387 7.3680412,7.2306594 8.0125458,7.7879364 8.0859931,8.4994504 8.1664501,9.2788704 7.5626348,9.9757519 6.7920459,10.053329 5.9517641,10.137921 5.2011503,9.486332 5.1193902,8.6551176 5.0306037,7.7524683 5.731172,6.9468003 6.6245239,6.860803 7.5910108,6.7677654 8.4530237,7.5184883 8.5433121,8.4754534 8.6406574,9.5072152 7.8386317,10.426835 6.8166107,10.521468 5.7181679,10.623177 4.7397076,9.7687252 4.6406762,8.6802372 4.5345472,7.5137363 5.4425247,6.4752261 6.5988613,6.3717432 7.8347703,6.2611393 8.9345154,7.2237197 9.0425027,8.4492593 9.1576362,9.7559003 8.1393964,10.918043 6.8433258,11.030587 5.4646529,11.150305 4.238972,10.075369 4.121818,8.7074634 3.9974634,7.2554819 5.1301132,5.9651416 6.5711336,5.8433262 8.0976786,5.7142811 9.4537799,6.9056452 9.5803084,8.4210389 9.7140967,10.023382 8.4630349,11.446327 6.8720304,11.57762 5.1926757,11.716204 3.7018191,10.404477 3.5657111,8.7366441 3.4222806,6.979082 4.7956251,5.4192649 6.5414844,5.2782913 8.3784316,5.1299625 10.008243,6.5658623 10.154132,8.3909285 10.30741,10.308421 8.8080311,12.009245 6.902595,12.1601 4.9034133,12.318377 3.1305714,10.754609 2.9747016,8.7676563 2.8113758,6.6856575 4.4404319,4.8398075 6.5100311,4.6788739 8.6759599,4.5104497 10.595795,6.205679 10.761841,8.3590401 10.935413,10.609997 9.1731363,12.604782 6.9349126,12.775989 4.5978427,12.954756 2.5271557,11.12457 2.3507408,8.8003975 2.1667293,6.3761441 4.0656771,4.2286147 6.4768717,4.0469439 8.9893664,3.8576407 11.214667,5.8261915 11.401641,8.3254678 11.596283,10.927249 9.5572981,13.231239 6.9688929,13.423563 4.2767916,13.623591 1.8932048,11.51335 1.6954851,8.8347809 1.490024,6.0513382 3.6723333,3.5872575 6.4420899,3.3840954 9.3178841,3.1731556 11.863346,5.4283362 12.071996,8.2902921 12.288461,11.259437 9.9596142,13.887158 7.0044581,14.101341 3.9409734,14.323376 1.2301251,11.920078 1.0103634,8.8707314 0.78271328,5.7119286 3.2612408,2.9170936 6.4057581,2.6917087 9.6608475,2.4583984 12.54052,5.0129251 12.771572,8.2535831 13.010587,11.605918 10.379299,14.57127 7.0415405,14.808034 3.5910107,15.052798 0.53914474,12.343994 0.29662509,8.9081835 0.04606893,5.3585183 2.8331354,2.2193125 6.3679399,1.9709938 10.017672,1.7146016 13.245036,4.5806711 13.499197,8.2154023 13.761468,11.966124 10.815663,15.282457 7.0800805,15.542503 3.2274538,15.810697 -0.17865164,12.784428 -0.44462527,8.9470793 -0.71878384,4.9916416 2.388668,1.4949673 6.3286915,1.2230236 10.387839,0.94285793 13.975871,4.1322066 14.253827,8.1758044 14.540042,12.339552 11.268089,16.019725 7.1200248,16.303735 2.8507932,16.596041 -0.92229693,13.240782 -1.2124021,8.987367 -1.5108403,4.6117756 1.9284204,0.7449991 6.2880633,0.44875726 10.770883,0.14414542 14.73211,3.6680977 15.034529,8.1348385 15.345356,12.725749 11.736027,16.782182 7.1613256,17.09082 2.4614697,17.407902 -1.6909217,13.712518 -2.0058186,9.0290001 -2.329196,4.2193503 1.452916,-0.02974465 6.2461006,-0.35094075 11.166386,-0.68065401 15.512924,3.1888551 15.84046,8.0925487 16.176549,13.124306 12.218979,17.569021 7.2039399,17.902935 2.0598825,18.24544 -2.4837389,14.199151 -2.8240716,9.0719365 -3.1730312,3.8147552 0.96262968,-0.8284954 6.2028445,-1.1752859 11.573967,-1.5307398 16.317565,2.6949424 16.670852,8.0489754 17.032839,13.53485 12.716492,18.379509 7.2478283,18.739332 1.6463953,19.107891 -3.3000314,14.700238 -3.6664289,9.1161377 -4.0415985,3.3983462 0.45799428,-1.650552 6.1583328,-2.0235623 11.993277,-2.4053807 17.145345,2.1867831 17.525007,8.0041552 17.913512,13.957042 13.228151,19.212974 7.2929548,19.599324 1.2213411,19.994554 -4.1391425,15.215373 -4.5322195,9.1615685 -4.9342125,2.9704492 -0.06059318,-2.4952713 6.1125997,-2.8951127 12.423998,-3.3039057 17.995636,1.6647659 18.402279,7.9581219 18.817909,14.390569 13.753575,20.068799 7.3392864,20.482281 0.7850267,20.904786 -5.0004676,15.744183 -5.4208255,9.2081965 -5.8502418,2.5313648 -0.59276694,-3.3620609 6.0656772,-3.7893316 12.865835,-4.225696 18.867856,1.1292494 19.302076,7.9109066 19.745425,14.835142 14.292414,20.946416 7.3867926,21.387621 0.33773537,21.837991 -5.8834477,16.286323 -6.3316754,9.2559917 -6.7891025,2.0813711 -1.1381886,-4.2503723 6.0175946,-4.7056581 13.318515,-5.1701783 19.761467,0.58056575 20.223846,7.8625384 20.695495,15.290492 14.84434,21.845295 7.4354448,22.314804 -0.1202698,22.793618 -6.7875642,16.841473 -7.2642388,9.3049263 -7.7502523,1.6207264 -1.6965439,-5.1596961 5.9683793,-5.6435713 13.781785,-6.1368199 20.675968,0.01902364 21.167079,7.813044 21.667598,15.756371 15.409051,22.764945 7.4852168,23.263326 -0.58874383,23.771151 -7.712334,17.409335 -8.2180214,9.3549743 -8.7331856,1.1496715 -2.2675398,-6.0895575 5.9180568,-6.6025853 14.255406,-7.1251241 21.610893,-0.55508897 22.131296,7.7624484 22.661244,16.232545 15.986263,23.704907 7.5360839,24.232719 -1.0674578,24.77011 -8.6573056,17.989631 -9.1925611,9.4061115 -9.7374299,0.66843162 -2.8509025,-7.0395125 5.8666508,-7.5822456 14.739159,-8.1346258 22.565806,-1.1415026 23.11605,7.7107752 23.675976,16.718798 16.575712,24.66475 7.588023,25.22254 -1.5561972,25.790045 -9.6220561,18.582099 -10.187425,9.4583152 -10.762542,0.17721787 -3.4463752,-8.0091445 5.8141839,-8.582126 15.232835,-9.164889 23.540295,-1.7399645 24.120922,7.6580463 24.711364,17.214923 17.177148,25.644073 7.6410125,26.232379 -2.0547604,26.830534 -10.606188,19.186495 -11.202206,9.511564 -11.808106,-0.32377119 -4.0537163,-8.9980622 5.760677,-9.6018254 15.736238,-10.215503 24.533975,-2.3502367 25.145516,7.6042826 25.66388,16.042077 20.172723,23.939233 12.111563,26.450818"
       transform="matrix(0.61624563,0,0,0.58007469,27.143568,10.941429)" />
    <path
       transform="matrix(0.61624563,0,0,0.58007469,11.143568,23.512858)"
       d="M 6.7502749,9.2572838 C 6.3510769,9.3104431 5.9900895,9.004298 5.9403145,8.6120411 5.883435,8.1637959 6.2278651,7.7594543 6.6688667,7.7058607 7.1680146,7.6452008 7.6173415,8.029412 7.6748025,8.5210269 7.7393029,9.0728679 7.3138695,9.5687534 6.7698394,9.6301324 6.1635737,9.698533 5.6196082,9.2304857 5.5542594,8.6322986 5.481899,7.9699296 5.9939077,7.3764102 6.6479393,7.3070387 7.3680412,7.2306594 8.0125458,7.7879364 8.0859931,8.4994504 8.1664501,9.2788704 7.5626348,9.9757519 6.7920459,10.053329 5.9517641,10.137921 5.2011503,9.486332 5.1193902,8.6551176 5.0306037,7.7524683 5.731172,6.9468003 6.6245239,6.860803 7.5910108,6.7677654 8.4530237,7.5184883 8.5433121,8.4754534 8.6406574,9.5072152 7.8386317,10.426835 6.8166107,10.521468 5.7181679,10.623177 4.7397076,9.7687252 4.6406762,8.6802372 4.5345472,7.5137363 5.4425247,6.4752261 6.5988613,6.3717432 7.8347703,6.2611393 8.9345154,7.2237197 9.0425027,8.4492593 9.1576362,9.7559003 8.1393964,10.918043 6.8433258,11.030587 5.4646529,11.150305 4.238972,10.075369 4.121818,8.7074634 3.9974634,7.2554819 5.1301132,5.9651416 6.5711336,5.8433262 8.0976786,5.7142811 9.4537799,6.9056452 9.5803084,8.4210389 9.7140967,10.023382 8.4630349,11.446327 6.8720304,11.57762 5.1926757,11.716204 3.7018191,10.404477 3.5657111,8.7366441 3.4222806,6.979082 4.7956251,5.4192649 6.5414844,5.2782913 8.3784316,5.1299625 10.008243,6.5658623 10.154132,8.3909285 10.30741,10.308421 8.8080311,12.009245 6.902595,12.1601 4.9034133,12.318377 3.1305714,10.754609 2.9747016,8.7676563 2.8113758,6.6856575 4.4404319,4.8398075 6.5100311,4.6788739 8.6759599,4.5104497 10.595795,6.205679 10.761841,8.3590401 10.935413,10.609997 9.1731363,12.604782 6.9349126,12.775989 4.5978427,12.954756 2.5271557,11.12457 2.3507408,8.8003975 2.1667293,6.3761441 4.0656771,4.2286147 6.4768717,4.0469439 8.9893664,3.8576407 11.214667,5.8261915 11.401641,8.3254678 11.596283,10.927249 9.5572981,13.231239 6.9688929,13.423563 4.2767916,13.623591 1.8932048,11.51335 1.6954851,8.8347809 1.490024,6.0513382 3.6723333,3.5872575 6.4420899,3.3840954 9.3178841,3.1731556 11.863346,5.4283362 12.071996,8.2902921 12.288461,11.259437 9.9596142,13.887158 7.0044581,14.101341 3.9409734,14.323376 1.2301251,11.920078 1.0103634,8.8707314 0.78271328,5.7119286 3.2612408,2.9170936 6.4057581,2.6917087 9.6608475,2.4583984 12.54052,5.0129251 12.771572,8.2535831 13.010587,11.605918 10.379299,14.57127 7.0415405,14.808034 3.5910107,15.052798 0.53914474,12.343994 0.29662509,8.9081835 0.04606893,5.3585183 2.8331354,2.2193125 6.3679399,1.9709938 10.017672,1.7146016 13.245036,4.5806711 13.499197,8.2154023 13.761468,11.966124 10.815663,15.282457 7.0800805,15.542503 3.2274538,15.810697 -0.17865164,12.784428 -0.44462527,8.9470793 -0.71878384,4.9916416 2.388668,1.4949673 6.3286915,1.2230236 10.387839,0.94285793 13.975871,4.1322066 14.253827,8.1758044 14.540042,12.339552 11.268089,16.019725 7.1200248,16.303735 2.8507932,16.596041 -0.92229693,13.240782 -1.2124021,8.987367 -1.5108403,4.6117756 1.9284204,0.7449991 6.2880633,0.44875726 10.770883,0.14414542 14.73211,3.6680977 15.034529,8.1348385 15.345356,12.725749 11.736027,16.782182 7.1613256,17.09082 2.4614697,17.407902 -1.6909217,13.712518 -2.0058186,9.0290001 -2.329196,4.2193503 1.452916,-0.02974465 6.2461006,-0.35094075 11.166386,-0.68065401 15.512924,3.1888551 15.84046,8.0925487 16.176549,13.124306 12.218979,17.569021 7.2039399,17.902935 2.0598825,18.24544 -2.4837389,14.199151 -2.8240716,9.0719365 -3.1730312,3.8147552 0.96262968,-0.8284954 6.2028445,-1.1752859 11.573967,-1.5307398 16.317565,2.6949424 16.670852,8.0489754 17.032839,13.53485 12.716492,18.379509 7.2478283,18.739332 1.6463953,19.107891 -3.3000314,14.700238 -3.6664289,9.1161377 -4.0415985,3.3983462 0.45799428,-1.650552 6.1583328,-2.0235623 11.993277,-2.4053807 17.145345,2.1867831 17.525007,8.0041552 17.913512,13.957042 13.228151,19.212974 7.2929548,19.599324 1.2213411,19.994554 -4.1391425,15.215373 -4.5322195,9.1615685 -4.9342125,2.9704492 -0.06059318,-2.4952713 6.1125997,-2.8951127 12.423998,-3.3039057 17.995636,1.6647659 18.402279,7.9581219 18.817909,14.390569 13.753575,20.068799 7.3392864,20.482281 0.7850267,20.904786 -5.0004676,15.744183 -5.4208255,9.2081965 -5.8502418,2.5313648 -0.59276694,-3.3620609 6.0656772,-3.7893316 12.865835,-4.225696 18.867856,1.1292494 19.302076,7.9109066 19.745425,14.835142 14.292414,20.946416 7.3867926,21.387621 0.33773537,21.837991 -5.8834477,16.286323 -6.3316754,9.2559917 -6.7891025,2.0813711 -1.1381886,-4.2503723 6.0175946,-4.7056581 13.318515,-5.1701783 19.761467,0.58056575 20.223846,7.8625384 20.695495,15.290492 14.84434,21.845295 7.4354448,22.314804 -0.1202698,22.793618 -6.7875642,16.841473 -7.2642388,9.3049263 -7.7502523,1.6207264 -1.6965439,-5.1596961 5.9683793,-5.6435713 13.781785,-6.1368199 20.675968,0.01902364 21.167079,7.813044 21.667598,15.756371 15.409051,22.764945 7.4852168,23.263326 -0.58874383,23.771151 -7.712334,17.409335 -8.2180214,9.3549743 -8.7331856,1.1496715 -2.2675398,-6.0895575 5.9180568,-6.6025853 14.255406,-7.1251241 21.610893,-0.55508897 22.131296,7.7624484 22.661244,16.232545 15.986263,23.704907 7.5360839,24.232719 -1.0674578,24.77011 -8.6573056,17.989631 -9.1925611,9.4061115 -9.7374299,0.66843162 -2.8509025,-7.0395125 5.8666508,-7.5822456 14.739159,-8.1346258 22.565806,-1.1415026 23.11605,7.7107752 23.675976,16.718798 16.575712,24.66475 7.588023,25.22254 -1.5561972,25.790045 -9.6220561,18.582099 -10.187425,9.4583152 -10.762542,0.17721787 -3.4463752,-8.0091445 5.8141839,-8.582126 15.232835,-9.164889 23.540295,-1.7399645 24.120922,7.6580463 24.711364,17.214923 17.177148,25.644073 7.6410125,26.232379 -2.0547604,26.830534 -10.606188,19.186495 -11.202206,9.511564 -11.808106,-0.32377119 -4.0537163,-8.9980622 5.760677,-9.6018254 15.736238,-10.215503 24.533975,-2.3502367 25.145516,7.6042826 25.66388,16.042077 20.172723,23.939233 12.111563,26.450818"
       sodipodi:t0="0.11058418"
       sodipodi:argument="-167.99719"
       sodipodi:radius="18.676273"
       sodipodi:revolution="26.940924"
       sodipodi:expansion="1.5"
       sodipodi:cy="8.5714283"
       sodipodi:cx="6.7142859"
       id="path2996"
       style="fill:#0000ff;stroke:#000000;stroke-width:0.26215988000000001;stroke-linecap:butt;stroke-linejoin:miter;stroke-miterlimit:4;stroke-opacity:1;stroke-dasharray:0.13107994000000001, 0.13107994000000001;stroke-dashoffset:0"
       sodipodi:type="spiral" />
    <path
       transform="matrix(0.61624563,0,0,0.58007469,7.5721397,6.6557156)"
       d="M 6.7502749,9.2572838 C 6.3510769,9.3104431 5.9900895,9.004298 5.9403145,8.6120411 5.883435,8.1637959 6.2278651,7.7594543 6.6688667,7.7058607 7.1680146,7.6452008 7.6173415,8.029412 7.6748025,8.5210269 7.7393029,9.0728679 7.3138695,9.5687534 6.7698394,9.6301324 6.1635737,9.698533 5.6196082,9.2304857 5.5542594,8.6322986 5.481899,7.9699296 5.9939077,7.3764102 6.6479393,7.3070387 7.3680412,7.2306594 8.0125458,7.7879364 8.0859931,8.4994504 8.1664501,9.2788704 7.5626348,9.9757519 6.7920459,10.053329 5.9517641,10.137921 5.2011503,9.486332 5.1193902,8.6551176 5.0306037,7.7524683 5.731172,6.9468003 6.6245239,6.860803 7.5910108,6.7677654 8.4530237,7.5184883 8.5433121,8.4754534 8.6406574,9.5072152 7.8386317,10.426835 6.8166107,10.521468 5.7181679,10.623177 4.7397076,9.7687252 4.6406762,8.6802372 4.5345472,7.5137363 5.4425247,6.4752261 6.5988613,6.3717432 7.8347703,6.2611393 8.9345154,7.2237197 9.0425027,8.4492593 9.1576362,9.7559003 8.1393964,10.918043 6.8433258,11.030587 5.4646529,11.150305 4.238972,10.075369 4.121818,8.7074634 3.9974634,7.2554819 5.1301132,5.9651416 6.5711336,5.8433262 8.0976786,5.7142811 9.4537799,6.9056452 9.5803084,8.4210389 9.7140967,10.023382 8.4630349,11.446327 6.8720304,11.57762 5.1926757,11.716204 3.7018191,10.404477 3.5657111,8.7366441 3.4222806,6.979082 4.7956251,5.4192649 6.5414844,5.2782913 8.3784316,5.1299625 10.008243,6.5658623 10.154132,8.3909285 10.30741,10.308421 8.8080311,12.009245 6.902595,12.1601 4.9034133,12.318377 3.1305714,10.754609 2.9747016,8.7676563 2.8113758,6.6856575 4.4404319,4.8398075 6.5100311,4.6788739 8.6759599,4.5104497 10.595795,6.205679 10.761841,8.3590401 10.935413,10.609997 9.1731363,12.604782 6.9349126,12.775989 4.5978427,12.954756 2.5271557,11.12457 2.3507408,8.8003975 2.1667293,6.3761441 4.0656771,4.2286147 6.4768717,4.0469439 8.9893664,3.8576407 11.214667,5.8261915 11.401641,8.3254678 11.596283,10.927249 9.5572981,13.231239 6.9688929,13.423563 4.2767916,13.623591 1.8932048,11.51335 1.6954851,8.8347809 1.490024,6.0513382 3.6723333,3.5872575 6.4420899,3.3840954 9.3178841,3.1731556 11.863346,5.4283362 12.071996,8.2902921 12.288461,11.259437 9.9596142,13.887158 7.0044581,14.101341 3.9409734,14.323376 1.2301251,11.920078 1.0103634,8.8707314 0.78271328,5.7119286 3.2612408,2.9170936 6.4057581,2.6917087 9.6608475,2.4583984 12.54052,5.0129251 12.771572,8.2535831 13.010587,11.605918 10.379299,14.57127 7.0415405,14.808034 3.5910107,15.052798 0.53914474,12.343994 0.29662509,8.9081835 0.04606893,5.3585183 2.8331354,2.2193125 6.3679399,1.9709938 10.017672,1.7146016 13.245036,4.5806711 13.499197,8.2154023 13.761468,11.966124 10.815663,15.282457 7.0800805,15.542503 3.2274538,15.810697 -0.17865164,12.784428 -0.44462527,8.9470793 -0.71878384,4.9916416 2.388668,1.4949673 6.3286915,1.2230236 10.387839,0.94285793 13.975871,4.1322066 14.253827,8.1758044 14.540042,12.339552 11.268089,16.019725 7.1200248,16.303735 2.8507932,16.596041 -0.92229693,13.240782 -1.2124021,8.987367 -1.5108403,4.6117756 1.9284204,0.7449991 6.2880633,0.44875726 10.770883,0.14414542 14.73211,3.6680977 15.034529,8.1348385 15.345356,12.725749 11.736027,16.782182 7.1613256,17.09082 2.4614697,17.407902 -1.6909217,13.712518 -2.0058186,9.0290001 -2.329196,4.2193503 1.452916,-0.02974465 6.2461006,-0.35094075 11.166386,-0.68065401 15.512924,3.1888551 15.84046,8.0925487 16.176549,13.124306 12.218979,17.569021 7.2039399,17.902935 2.0598825,18.24544 -2.4837389,14.199151 -2.8240716,9.0719365 -3.1730312,3.8147552 0.96262968,-0.8284954 6.2028445,-1.1752859 11.573967,-1.5307398 16.317565,2.6949424 16.670852,8.0489754 17.032839,13.53485 12.716492,18.379509 7.2478283,18.739332 1.6463953,19.107891 -3.3000314,14.700238 -3.6664289,9.1161377 -4.0415985,3.3983462 0.45799428,-1.650552 6.1583328,-2.0235623 11.993277,-2.4053807 17.145345,2.1867831 17.525007,8.0041552 17.913512,13.957042 13.228151,19.212974 7.2929548,19.599324 1.2213411,19.994554 -4.1391425,15.215373 -4.5322195,9.1615685 -4.9342125,2.9704492 -0.06059318,-2.4952713 6.1125997,-2.8951127 12.423998,-3.3039057 17.995636,1.6647659 18.402279,7.9581219 18.817909,14.390569 13.753575,20.068799 7.3392864,20.482281 0.7850267,20.904786 -5.0004676,15.744183 -5.4208255,9.2081965 -5.8502418,2.5313648 -0.59276694,-3.3620609 6.0656772,-3.7893316 12.865835,-4.225696 18.867856,1.1292494 19.302076,7.9109066 19.745425,14.835142 14.292414,20.946416 7.3867926,21.387621 0.33773537,21.837991 -5.8834477,16.286323 -6.3316754,9.2559917 -6.7891025,2.0813711 -1.1381886,-4.2503723 6.0175946,-4.7056581 13.318515,-5.1701783 19.761467,0.58056575 20.223846,7.8625384 20.695495,15.290492 14.84434,21.845295 7.4354448,22.314804 -0.1202698,22.793618 -6.7875642,16.841473 -7.2642388,9.3049263 -7.7502523,1.6207264 -1.6965439,-5.1596961 5.9683793,-5.6435713 13.781785,-6.1368199 20.675968,0.01902364 21.167079,7.813044 21.667598,15.756371 15.409051,22.764945 7.4852168,23.263326 -0.58874383,23.771151 -7.712334,17.409335 -8.2180214,9.3549743 -8.7331856,1.1496715 -2.2675398,-6.0895575 5.9180568,-6.6025853 14.255406,-7.1251241 21.610893,-0.55508897 22.131296,7.7624484 22.661244,16.232545 15.986263,23.704907 7.5360839,24.232719 -1.0674578,24.77011 -8.6573056,17.989631 -9.1925611,9.4061115 -9.7374299,0.66843162 -2.8509025,-7.0395125 5.8666508,-7.5822456 14.739159,-8.1346258 22.565806,-1.1415026 23.11605,7.7107752 23.675976,16.718798 16.575712,24.66475 7.588023,25.22254 -1.5561972,25.790045 -9.6220561,18.582099 -10.187425,9.4583152 -10.762542,0.17721787 -3.4463752,-8.0091445 5.8141839,-8.582126 15.232835,-9.164889 23.540295,-1.7399645 24.120922,7.6580463 24.711364,17.214923 17.177148,25.644073 7.6410125,26.232379 -2.0547604,26.830534 -10.606188,19.186495 -11.202206,9.511564 -11.808106,-0.32377119 -4.0537163,-8.9980622 5.760677,-9.6018254 15.736238,-10.215503 24.533975,-2.3502367 25.145516,7.6042826 25.66388,16.042077 20.172723,23.939233 12.111563,26.450818"
       sodipodi:t0="0.11058418"
       sodipodi:argument="-167.99719"
       sodipodi:radius="18.676273"
       sodipodi:revolution="26.940924"
       sodipodi:expansion="1.5"
       sodipodi:cy="8.5714283"
       sodipodi:cx="6.7142859"
       id="path2990"
       style="fill:#ff0000;stroke:#000000;stroke-width:0.26215988;stroke-linecap:butt;stroke-linejoin:miter;stroke-miterlimit:4;stroke-opacity:1;stroke-dasharray:0.13107994, 0.13107994;stroke-dashoffset:0"
       sodipodi:type="spiral" />
    <path
       sodipodi:type="spiral"
       style="fill:#008000;stroke:#000000;stroke-width:0.26215988;stroke-linecap:butt;stroke-linejoin:miter;stroke-miterlimit:4;stroke-opacity:1;stroke-dasharray:0.13107994, 0.13107994;stroke-dashoffset:0"
       id="path4869"
       sodipodi:cx="6.7142859"
       sodipodi:cy="8.5714283"
       sodipodi:expansion="1.5"
       sodipodi:revolution="26.940924"
       sodipodi:radius="18.676273"
       sodipodi:argument="-167.99719"
       sodipodi:t0="0.11058418"
       d="M 6.7502749,9.2572838 C 6.3510769,9.3104431 5.9900895,9.004298 5.9403145,8.6120411 5.883435,8.1637959 6.2278651,7.7594543 6.6688667,7.7058607 7.1680146,7.6452008 7.6173415,8.029412 7.6748025,8.5210269 7.7393029,9.0728679 7.3138695,9.5687534 6.7698394,9.6301324 6.1635737,9.698533 5.6196082,9.2304857 5.5542594,8.6322986 5.481899,7.9699296 5.9939077,7.3764102 6.6479393,7.3070387 7.3680412,7.2306594 8.0125458,7.7879364 8.0859931,8.4994504 8.1664501,9.2788704 7.5626348,9.9757519 6.7920459,10.053329 5.9517641,10.137921 5.2011503,9.486332 5.1193902,8.6551176 5.0306037,7.7524683 5.731172,6.9468003 6.6245239,6.860803 7.5910108,6.7677654 8.4530237,7.5184883 8.5433121,8.4754534 8.6406574,9.5072152 7.8386317,10.426835 6.8166107,10.521468 5.7181679,10.623177 4.7397076,9.7687252 4.6406762,8.6802372 4.5345472,7.5137363 5.4425247,6.4752261 6.5988613,6.3717432 7.8347703,6.2611393 8.9345154,7.2237197 9.0425027,8.4492593 9.1576362,9.7559003 8.1393964,10.918043 6.8433258,11.030587 5.4646529,11.150305 4.238972,10.075369 4.121818,8.7074634 3.9974634,7.2554819 5.1301132,5.9651416 6.5711336,5.8433262 8.0976786,5.7142811 9.4537799,6.9056452 9.5803084,8.4210389 9.7140967,10.023382 8.4630349,11.446327 6.8720304,11.57762 5.1926757,11.716204 3.7018191,10.404477 3.5657111,8.7366441 3.4222806,6.979082 4.7956251,5.4192649 6.5414844,5.2782913 8.3784316,5.1299625 10.008243,6.5658623 10.154132,8.3909285 10.30741,10.308421 8.8080311,12.009245 6.902595,12.1601 4.9034133,12.318377 3.1305714,10.754609 2.9747016,8.7676563 2.8113758,6.6856575 4.4404319,4.8398075 6.5100311,4.6788739 8.6759599,4.5104497 10.595795,6.205679 10.761841,8.3590401 10.935413,10.609997 9.1731363,12.604782 6.9349126,12.775989 4.5978427,12.954756 2.5271557,11.12457 2.3507408,8.8003975 2.1667293,6.3761441 4.0656771,4.2286147 6.4768717,4.0469439 8.9893664,3.8576407 11.214667,5.8261915 11.401641,8.3254678 11.596283,10.927249 9.5572981,13.231239 6.9688929,13.423563 4.2767916,13.623591 1.8932048,11.51335 1.6954851,8.8347809 1.490024,6.0513382 3.6723333,3.5872575 6.4420899,3.3840954 9.3178841,3.1731556 11.863346,5.4283362 12.071996,8.2902921 12.288461,11.259437 9.9596142,13.887158 7.0044581,14.101341 3.9409734,14.323376 1.2301251,11.920078 1.0103634,8.8707314 0.78271328,5.7119286 3.2612408,2.9170936 6.4057581,2.6917087 9.6608475,2.4583984 12.54052,5.0129251 12.771572,8.2535831 13.010587,11.605918 10.379299,14.57127 7.0415405,14.808034 3.5910107,15.052798 0.53914474,12.343994 0.29662509,8.9081835 0.04606893,5.3585183 2.8331354,2.2193125 6.3679399,1.9709938 10.017672,1.7146016 13.245036,4.5806711 13.499197,8.2154023 13.761468,11.966124 10.815663,15.282457 7.0800805,15.542503 3.2274538,15.810697 -0.17865164,12.784428 -0.44462527,8.9470793 -0.71878384,4.9916416 2.388668,1.4949673 6.3286915,1.2230236 10.387839,0.94285793 13.975871,4.1322066 14.253827,8.1758044 14.540042,12.339552 11.268089,16.019725 7.1200248,16.303735 2.8507932,16.596041 -0.92229693,13.240782 -1.2124021,8.987367 -1.5108403,4.6117756 1.9284204,0.7449991 6.2880633,0.44875726 10.770883,0.14414542 14.73211,3.6680977 15.034529,8.1348385 15.345356,12.725749 11.736027,16.782182 7.1613256,17.09082 2.4614697,17.407902 -1.6909217,13.712518 -2.0058186,9.0290001 -2.329196,4.2193503 1.452916,-0.02974465 6.2461006,-0.35094075 11.166386,-0.68065401 15.512924,3.1888551 15.84046,8.0925487 16.176549,13.124306 12.218979,17.569021 7.2039399,17.902935 2.0598825,18.24544 -2.4837389,14.199151 -2.8240716,9.0719365 -3.1730312,3.8147552 0.96262968,-0.8284954 6.2028445,-1.1752859 11.573967,-1.5307398 16.317565,2.6949424 16.670852,8.0489754 17.032839,13.53485 12.716492,18.379509 7.2478283,18.739332 1.6463953,19.107891 -3.3000314,14.700238 -3.6664289,9.1161377 -4.0415985,3.3983462 0.45799428,-1.650552 6.1583328,-2.0235623 11.993277,-2.4053807 17.145345,2.1867831 17.525007,8.0041552 17.913512,13.957042 13.228151,19.212974 7.2929548,19.599324 1.2213411,19.994554 -4.1391425,15.215373 -4.5322195,9.1615685 -4.9342125,2.9704492 -0.06059318,-2.4952713 6.1125997,-2.8951127 12.423998,-3.3039057 17.995636,1.6647659 18.402279,7.9581219 18.817909,14.390569 13.753575,20.068799 7.3392864,20.482281 0.7850267,20.904786 -5.0004676,15.744183 -5.4208255,9.2081965 -5.8502418,2.5313648 -0.59276694,-3.3620609 6.0656772,-3.7893316 12.865835,-4.225696 18.867856,1.1292494 19.302076,7.9109066 19.745425,14.835142 14.292414,20.946416 7.3867926,21.387621 0.33773537,21.837991 -5.8834477,16.286323 -6.3316754,9.2559917 -6.7891025,2.0813711 -1.1381886,-4.2503723 6.0175946,-4.7056581 13.318515,-5.1701783 19.761467,0.58056575 20.223846,7.8625384 20.695495,15.290492 14.84434,21.845295 7.4354448,22.314804 -0.1202698,22.793618 -6.7875642,16.841473 -7.2642388,9.3049263 -7.7502523,1.6207264 -1.6965439,-5.1596961 5.9683793,-5.6435713 13.781785,-6.1368199 20.675968,0.01902364 21.167079,7.813044 21.667598,15.756371 15.409051,22.764945 7.4852168,23.263326 -0.58874383,23.771151 -7.712334,17.409335 -8.2180214,9.3549743 -8.7331856,1.1496715 -2.2675398,-6.0895575 5.9180568,-6.6025853 14.255406,-7.1251241 21.610893,-0.55508897 22.131296,7.7624484 22.661244,16.232545 15.986263,23.704907 7.5360839,24.232719 -1.0674578,24.77011 -8.6573056,17.989631 -9.1925611,9.4061115 -9.7374299,0.66843162 -2.8509025,-7.0395125 5.8666508,-7.5822456 14.739159,-8.1346258 22.565806,-1.1415026 23.11605,7.7107752 23.675976,16.718798 16.575712,24.66475 7.588023,25.22254 -1.5561972,25.790045 -9.6220561,18.582099 -10.187425,9.4583152 -10.762542,0.17721787 -3.4463752,-8.0091445 5.8141839,-8.582126 15.232835,-9.164889 23.540295,-1.7399645 24.120922,7.6580463 24.711364,17.214923 17.177148,25.644073 7.6410125,26.232379 -2.0547604,26.830534 -10.606188,19.186495 -11.202206,9.511564 -11.808106,-0.32377119 -4.0537163,-8.9980622 5.760677,-9.6018254 15.736238,-10.215503 24.533975,-2.3502367 25.145516,7.6042826 25.66388,16.042077 20.172723,23.939233 12.111563,26.450818"
       transform="matrix(0.61624563,0,0,0.58007469,21.572139,17.370002)" />
    <path
       sodipodi:type="spiral"
       style="fill:#ff0000;stroke:#000000;stroke-width:0.26215988;stroke-linecap:butt;stroke-linejoin:miter;stroke-miterlimit:4;stroke-opacity:1;stroke-dasharray:0.13107994, 0.13107994;stroke-dashoffset:0"
       id="path2994"
       sodipodi:cx="6.7142859"
       sodipodi:cy="8.5714283"
       sodipodi:expansion="1.5"
       sodipodi:revolution="26.940924"
       sodipodi:radius="18.676273"
       sodipodi:argument="-167.99719"
       sodipodi:t0="0.11058418"
       d="M 6.7502749,9.2572838 C 6.3510769,9.3104431 5.9900895,9.004298 5.9403145,8.6120411 5.883435,8.1637959 6.2278651,7.7594543 6.6688667,7.7058607 7.1680146,7.6452008 7.6173415,8.029412 7.6748025,8.5210269 7.7393029,9.0728679 7.3138695,9.5687534 6.7698394,9.6301324 6.1635737,9.698533 5.6196082,9.2304857 5.5542594,8.6322986 5.481899,7.9699296 5.9939077,7.3764102 6.6479393,7.3070387 7.3680412,7.2306594 8.0125458,7.7879364 8.0859931,8.4994504 8.1664501,9.2788704 7.5626348,9.9757519 6.7920459,10.053329 5.9517641,10.137921 5.2011503,9.486332 5.1193902,8.6551176 5.0306037,7.7524683 5.731172,6.9468003 6.6245239,6.860803 7.5910108,6.7677654 8.4530237,7.5184883 8.5433121,8.4754534 8.6406574,9.5072152 7.8386317,10.426835 6.8166107,10.521468 5.7181679,10.623177 4.7397076,9.7687252 4.6406762,8.6802372 4.5345472,7.5137363 5.4425247,6.4752261 6.5988613,6.3717432 7.8347703,6.2611393 8.9345154,7.2237197 9.0425027,8.4492593 9.1576362,9.7559003 8.1393964,10.918043 6.8433258,11.030587 5.4646529,11.150305 4.238972,10.075369 4.121818,8.7074634 3.9974634,7.2554819 5.1301132,5.9651416 6.5711336,5.8433262 8.0976786,5.7142811 9.4537799,6.9056452 9.5803084,8.4210389 9.7140967,10.023382 8.4630349,11.446327 6.8720304,11.57762 5.1926757,11.716204 3.7018191,10.404477 3.5657111,8.7366441 3.4222806,6.979082 4.7956251,5.4192649 6.5414844,5.2782913 8.3784316,5.1299625 10.008243,6.5658623 10.154132,8.3909285 10.30741,10.308421 8.8080311,12.009245 6.902595,12.1601 4.9034133,12.318377 3.1305714,10.754609 2.9747016,8.7676563 2.8113758,6.6856575 4.4404319,4.8398075 6.5100311,4.6788739 8.6759599,4.5104497 10.595795,6.205679 10.761841,8.3590401 10.935413,10.609997 9.1731363,12.604782 6.9349126,12.775989 4.5978427,12.954756 2.5271557,11.12457 2.3507408,8.8003975 2.1667293,6.3761441 4.0656771,4.2286147 6.4768717,4.0469439 8.9893664,3.8576407 11.214667,5.8261915 11.401641,8.3254678 11.596283,10.927249 9.5572981,13.231239 6.9688929,13.423563 4.2767916,13.623591 1.8932048,11.51335 1.6954851,8.8347809 1.490024,6.0513382 3.6723333,3.5872575 6.4420899,3.3840954 9.3178841,3.1731556 11.863346,5.4283362 12.071996,8.2902921 12.288461,11.259437 9.9596142,13.887158 7.0044581,14.101341 3.9409734,14.323376 1.2301251,11.920078 1.0103634,8.8707314 0.78271328,5.7119286 3.2612408,2.9170936 6.4057581,2.6917087 9.6608475,2.4583984 12.54052,5.0129251 12.771572,8.2535831 13.010587,11.605918 10.379299,14.57127 7.0415405,14.808034 3.5910107,15.052798 0.53914474,12.343994 0.29662509,8.9081835 0.04606893,5.3585183 2.8331354,2.2193125 6.3679399,1.9709938 10.017672,1.7146016 13.245036,4.5806711 13.499197,8.2154023 13.761468,11.966124 10.815663,15.282457 7.0800805,15.542503 3.2274538,15.810697 -0.17865164,12.784428 -0.44462527,8.9470793 -0.71878384,4.9916416 2.388668,1.4949673 6.3286915,1.2230236 10.387839,0.94285793 13.975871,4.1322066 14.253827,8.1758044 14.540042,12.339552 11.268089,16.019725 7.1200248,16.303735 2.8507932,16.596041 -0.92229693,13.240782 -1.2124021,8.987367 -1.5108403,4.6117756 1.9284204,0.7449991 6.2880633,0.44875726 10.770883,0.14414542 14.73211,3.6680977 15.034529,8.1348385 15.345356,12.725749 11.736027,16.782182 7.1613256,17.09082 2.4614697,17.407902 -1.6909217,13.712518 -2.0058186,9.0290001 -2.329196,4.2193503 1.452916,-0.02974465 6.2461006,-0.35094075 11.166386,-0.68065401 15.512924,3.1888551 15.84046,8.0925487 16.176549,13.124306 12.218979,17.569021 7.2039399,17.902935 2.0598825,18.24544 -2.4837389,14.199151 -2.8240716,9.0719365 -3.1730312,3.8147552 0.96262968,-0.8284954 6.2028445,-1.1752859 11.573967,-1.5307398 16.317565,2.6949424 16.670852,8.0489754 17.032839,13.53485 12.716492,18.379509 7.2478283,18.739332 1.6463953,19.107891 -3.3000314,14.700238 -3.6664289,9.1161377 -4.0415985,3.3983462 0.45799428,-1.650552 6.1583328,-2.0235623 11.993277,-2.4053807 17.145345,2.1867831 17.525007,8.0041552 17.913512,13.957042 13.228151,19.212974 7.2929548,19.599324 1.2213411,19.994554 -4.1391425,15.215373 -4.5322195,9.1615685 -4.9342125,2.9704492 -0.06059318,-2.4952713 6.1125997,-2.8951127 12.423998,-3.3039057 17.995636,1.6647659 18.402279,7.9581219 18.817909,14.390569 13.753575,20.068799 7.3392864,20.482281 0.7850267,20.904786 -5.0004676,15.744183 -5.4208255,9.2081965 -5.8502418,2.5313648 -0.59276694,-3.3620609 6.0656772,-3.7893316 12.865835,-4.225696 18.867856,1.1292494 19.302076,7.9109066 19.745425,14.835142 14.292414,20.946416 7.3867926,21.387621 0.33773537,21.837991 -5.8834477,16.286323 -6.3316754,9.2559917 -6.7891025,2.0813711 -1.1381886,-4.2503723 6.0175946,-4.7056581 13.318515,-5.1701783 19.761467,0.58056575 20.223846,7.8625384 20.695495,15.290492 14.84434,21.845295 7.4354448,22.314804 -0.1202698,22.793618 -6.7875642,16.841473 -7.2642388,9.3049263 -7.7502523,1.6207264 -1.6965439,-5.1596961 5.9683793,-5.6435713 13.781785,-6.1368199 20.675968,0.01902364 21.167079,7.813044 21.667598,15.756371 15.409051,22.764945 7.4852168,23.263326 -0.58874383,23.771151 -7.712334,17.409335 -8.2180214,9.3549743 -8.7331856,1.1496715 -2.2675398,-6.0895575 5.9180568,-6.6025853 14.255406,-7.1251241 21.610893,-0.55508897 22.131296,7.7624484 22.661244,16.232545 15.986263,23.704907 7.5360839,24.232719 -1.0674578,24.77011 -8.6573056,17.989631 -9.1925611,9.4061115 -9.7374299,0.66843162 -2.8509025,-7.0395125 5.8666508,-7.5822456 14.739159,-8.1346258 22.565806,-1.1415026 23.11605,7.7107752 23.675976,16.718798 16.575712,24.66475 7.588023,25.22254 -1.5561972,25.790045 -9.6220561,18.582099 -10.187425,9.4583152 -10.762542,0.17721787 -3.4463752,-8.0091445 5.8141839,-8.582126 15.232835,-9.164889 23.540295,-1.7399645 24.120922,7.6580463 24.711364,17.214923 17.177148,25.644073 7.6410125,26.232379 -2.0547604,26.830534 -10.606188,19.186495 -11.202206,9.511564 -11.808106,-0.32377119 -4.0537163,-8.9980622 5.760677,-9.6018254 15.736238,-10.215503 24.533975,-2.3502367 25.145516,7.6042826 25.66388,16.042077 20.172723,23.939233 12.111563,26.450818"
       transform="matrix(0.61624563,0,0,0.58007469,7.5721397,6.6557156)" />
  </g>
</svg>
