<?xml version="1.0" encoding="UTF-8" standalone="no"?>
<!-- Created with Inkscape (http://www.inkscape.org/) -->

<svg
   xmlns:dc="http://purl.org/dc/elements/1.1/"
   xmlns:cc="http://creativecommons.org/ns#"
   xmlns:rdf="http://www.w3.org/1999/02/22-rdf-syntax-ns#"
   xmlns:svg="http://www.w3.org/2000/svg"
   xmlns="http://www.w3.org/2000/svg"
   xmlns:sodipodi="http://sodipodi.sourceforge.net/DTD/sodipodi-0.dtd"
   xmlns:inkscape="http://www.inkscape.org/namespaces/inkscape"
   width="32px"
   height="32px"
   id="svg2985"
   version="1.1"
   inkscape:version="0.48.4 r9939"
   sodipodi:docname="logo1.svg">
  <defs
     id="defs2987" />
  <sodipodi:namedview
     id="base"
     pagecolor="#ffffff"
     bordercolor="#666666"
     borderopacity="1.0"
     inkscape:pageopacity="0.0"
     inkscape:pageshadow="2"
     inkscape:zoom="7.9180417"
     inkscape:cx="-5.6593958"
     inkscape:cy="16.18442"
     inkscape:current-layer="layer1"
     showgrid="true"
     inkscape:grid-bbox="true"
     inkscape:document-units="px"
     inkscape:window-width="1366"
     inkscape:window-height="706"
     inkscape:window-x="-8"
     inkscape:window-y="-8"
     inkscape:window-maximized="1" />
  <metadata
     id="metadata2990">
    <rdf:RDF>
      <cc:Work
         rdf:about="">
        <dc:format>image/svg+xml</dc:format>
        <dc:type
           rdf:resource="http://purl.org/dc/dcmitype/StillImage" />
        <dc:title></dc:title>
      </cc:Work>
    </rdf:RDF>
  </metadata>
  <g
     id="layer1"
     inkscape:label="Layer 1"
     inkscape:groupmode="layer">
    <rect
       style="fill:#241c1c;fill-opacity:1;stroke:#10170f;stroke-width:0.32300001000000000;stroke-miterlimit:4;stroke-opacity:1;stroke-dasharray:0.16150000000000000, 0.16150000000000000;stroke-dashoffset:0"
       id="rect3811"
       width="32.331226"
       height="32.07864"
       x="0"
       y="0.047655139"
       rx="112325.7"
       ry="0.2" />
    <path
       transform="matrix(0.86762303,0,0,0.94324564,1.1621344,0.26856304)"
       sodipodi:type="arc"
       style="fill:#008000;fill-opacity:1;stroke:#10170f;stroke-width:0.32300001;stroke-miterlimit:4;stroke-opacity:1;stroke-dasharray:0.1615, 0.1615;stroke-dashoffset:0"
       id="path2999"
       sodipodi:cx="9.3457451"
       sodipodi:cy="8.0041676"
       sodipodi:rx="5.3043418"
       sodipodi:ry="5.051754"
       d="m 14.650087,8.0041676 a 5.3043418,5.051754 0 1 1 -10.6086837,0 5.3043418,5.051754 0 1 1 10.6086837,0 z" />
    <path
       sodipodi:type="arc"
       style="fill:#ff0000;fill-opacity:1;stroke:#10170f;stroke-width:0.32300001;stroke-miterlimit:4;stroke-opacity:1;stroke-dasharray:0.1615, 0.1615;stroke-dashoffset:0"
       id="path2993"
       sodipodi:cx="9.3457451"
       sodipodi:cy="8.0041676"
       sodipodi:rx="5.3043418"
       sodipodi:ry="5.051754"
       d="m 14.650087,8.0041676 a 5.3043418,5.051754 0 1 1 -10.6086837,0 5.3043418,5.051754 0 1 1 10.6086837,0 z"
       transform="matrix(0.86762303,0,0,0.94324564,-1.0293741,6.8205005)" />
    <path
       d="m 14.650087,8.0041676 a 5.3043418,5.051754 0 1 1 -10.6086837,0 5.3043418,5.051754 0 1 1 10.6086837,0 z"
       sodipodi:ry="5.051754"
       sodipodi:rx="5.3043418"
       sodipodi:cy="8.0041676"
       sodipodi:cx="9.3457451"
       id="path3001"
       style="fill:#ffff00;fill-opacity:1;stroke:#10170f;stroke-width:0.32300001;stroke-miterlimit:4;stroke-opacity:1;stroke-dasharray:0.1615, 0.1615;stroke-dashoffset:0"
       sodipodi:type="arc"
       transform="matrix(0.86762303,0,0,0.94324564,7.7366618,-1.9948332)" />
    <path
       transform="matrix(0.86762303,0,0,0.94324564,14.639914,0.14943717)"
       sodipodi:type="arc"
       style="fill:#0000ff;fill-opacity:1;stroke:#10170f;stroke-width:0.32300001;stroke-miterlimit:4;stroke-opacity:1;stroke-dasharray:0.1615, 0.1615;stroke-dashoffset:0"
       id="path3003"
       sodipodi:cx="9.3457451"
       sodipodi:cy="8.0041676"
       sodipodi:rx="5.3043418"
       sodipodi:ry="5.051754"
       d="m 14.650087,8.0041676 a 5.3043418,5.051754 0 1 1 -10.6086837,0 5.3043418,5.051754 0 1 1 10.6086837,0 z" />
    <path
       d="m 14.650087,8.0041676 a 5.3043418,5.051754 0 1 1 -10.6086837,0 5.3043418,5.051754 0 1 1 10.6086837,0 z"
       sodipodi:ry="5.051754"
       sodipodi:rx="5.3043418"
       sodipodi:cy="8.0041676"
       sodipodi:cx="9.3457451"
       id="path2997"
       style="fill:#ff00ff;fill-opacity:1;stroke:#10170f;stroke-width:0.32300001;stroke-miterlimit:4;stroke-opacity:1;stroke-dasharray:0.1615, 0.1615;stroke-dashoffset:0"
       sodipodi:type="arc"
       transform="matrix(0.86762303,0,0,0.94324564,17.488877,7.2970051)" />
    <path
       transform="matrix(-0.86762303,0,0,-0.94324564,33.486892,25.732329)"
       d="m 14.650087,8.0041676 a 5.3043418,5.051754 0 1 1 -10.6086837,0 5.3043418,5.051754 0 1 1 10.6086837,0 z"
       sodipodi:ry="5.051754"
       sodipodi:rx="5.3043418"
       sodipodi:cy="8.0041676"
       sodipodi:cx="9.3457451"
       id="path3005"
       style="fill:#ff0000;fill-opacity:1;stroke:#10170f;stroke-width:0.32300001;stroke-miterlimit:4;stroke-opacity:1;stroke-dasharray:0.1615, 0.1615;stroke-dashoffset:0"
       sodipodi:type="arc" />
    <path
       d="m 14.650087,8.0041676 a 5.3043418,5.051754 0 1 1 -10.6086837,0 5.3043418,5.051754 0 1 1 10.6086837,0 z"
       sodipodi:ry="5.051754"
       sodipodi:rx="5.3043418"
       sodipodi:cy="8.0041676"
       sodipodi:cx="9.3457451"
       id="path3007"
       style="fill:#008000;fill-opacity:1;stroke:#10170f;stroke-width:0.32300001;stroke-miterlimit:4;stroke-opacity:1;stroke-dasharray:0.1615, 0.1615;stroke-dashoffset:0"
       sodipodi:type="arc"
       transform="matrix(-0.86762303,0,0,-0.94324564,31.295385,32.284266)" />
    <path
       transform="matrix(-0.86762303,0,0,-0.94324564,24.720857,34.547663)"
       sodipodi:type="arc"
       style="fill:#ffff00;fill-opacity:1;stroke:#10170f;stroke-width:0.32300001;stroke-miterlimit:4;stroke-opacity:1;stroke-dasharray:0.1615, 0.1615;stroke-dashoffset:0"
       id="path3009"
       sodipodi:cx="9.3457451"
       sodipodi:cy="8.0041676"
       sodipodi:rx="5.3043418"
       sodipodi:ry="5.051754"
       d="m 14.650087,8.0041676 a 5.3043418,5.051754 0 1 1 -10.6086837,0 5.3043418,5.051754 0 1 1 10.6086837,0 z" />
    <path
       transform="matrix(-0.86762303,0,0,-0.94324564,14.968642,25.255825)"
       sodipodi:type="arc"
       style="fill:#ff00ff;fill-opacity:1;stroke:#10170f;stroke-width:0.32300001;stroke-miterlimit:4;stroke-opacity:1;stroke-dasharray:0.1615, 0.1615;stroke-dashoffset:0"
       id="path3013"
       sodipodi:cx="9.3457451"
       sodipodi:cy="8.0041676"
       sodipodi:rx="5.3043418"
       sodipodi:ry="5.051754"
       d="m 14.650087,8.0041676 a 5.3043418,5.051754 0 1 1 -10.6086837,0 5.3043418,5.051754 0 1 1 10.6086837,0 z" />
    <path
       d="m 14.650087,8.0041676 a 5.3043418,5.051754 0 1 1 -10.6086837,0 5.3043418,5.051754 0 1 1 10.6086837,0 z"
       sodipodi:ry="5.051754"
       sodipodi:rx="5.3043418"
       sodipodi:cy="8.0041676"
       sodipodi:cx="9.3457451"
       id="path3011"
       style="fill:#0000ff;fill-opacity:1;stroke:#10170f;stroke-width:0.32300001;stroke-miterlimit:4;stroke-opacity:1;stroke-dasharray:0.1615, 0.1615;stroke-dashoffset:0"
       sodipodi:type="arc"
       transform="matrix(-0.86762303,0,0,-0.94324564,17.817605,32.403393)" />
    <text
       xml:space="preserve"
       style="font-size:6px;font-style:normal;font-weight:normal;line-height:125%;letter-spacing:0px;word-spacing:0px;fill:#000000;fill-opacity:1;stroke:none;font-family:Sans"
       x="13.008267"
       y="11.792983"
       id="text3027"
       sodipodi:linespacing="125%"><tspan
         sodipodi:role="line"
         id="tspan3029"
         x="13.008267"
         y="11.792983"></tspan><tspan
         sodipodi:role="line"
         id="tspan3031"
         x="13.008267"
         y="28.042984" /></text>
    <flowRoot
       xml:space="preserve"
       id="flowRoot3033"
       style="font-size:13px;font-style:normal;font-weight:normal;line-height:125%;letter-spacing:0px;word-spacing:0px;fill:#ffffff;fill-opacity:1;stroke:none;font-family:Sans"
       transform="matrix(1.2583914,0,0,1.0814303,63.755938,5.0010466)"><flowRegion
         id="flowRegion3035"><rect
           id="rect3037"
           width="24.879889"
           height="16.03932"
           x="-42.939911"
           y="3.7101769"
           style="fill:#ffffff" /></flowRegion><flowPara
         id="flowPara3039">N</flowPara></flowRoot>  </g>
</svg>
